<svg id="Layer_1" data-name="Layer 1" xmlns="http://www.w3.org/2000/svg" viewBox="0 0 500 500"><defs><style>.cls-1{fill:#eaeaea;}.cls-2{fill:#cecece;}.cls-3{fill:#e51c5a;}.cls-4{fill:#c60c58;}.cls-5{fill:none;stroke:#000;stroke-linecap:round;stroke-linejoin:round;stroke-width:15px;}.cls-6{fill:#fcd32b;}</style></defs><title>beach-ball</title><circle class="cls-1" cx="250" cy="250" r="242"/><circle class="cls-1" cx="250" cy="250" r="242"/><path class="cls-2" d="M402.16,61.84A241,241,0,0,1,456,214c0,133.65-108.35,242-242,242A241,241,0,0,1,61.84,402.16,241.48,241.48,0,0,0,250,492c133.65,0,242-108.35,242-242A241.48,241.48,0,0,0,402.16,61.84Z"/><path class="cls-3" d="M218.81,136.31c6.77,7.82,8.27,18.77,5.13,29.61,54.43,4.23,162.68,20.53,268,82.58C491.35,145,425.69,56.82,333.76,22.9,288.32,45.42,241,79,207.88,128.73A27.2,27.2,0,0,1,218.81,136.31Z"/><path class="cls-3" d="M218.81,136.31c6.77,7.82,8.27,18.77,5.13,29.61,54.43,4.23,162.68,20.53,268,82.58C491.35,145,425.69,56.82,333.76,22.9,288.32,45.42,241,79,207.88,128.73A27.2,27.2,0,0,1,218.81,136.31Z"/><path class="cls-4" d="M456,214c0,5-.17,9.92-.47,14.83q18.2,9,36.45,19.67A241.54,241.54,0,0,0,402.16,61.84,241,241,0,0,1,456,214Z"/><path class="cls-3" d="M164.33,139.15a54.59,54.59,0,0,1,10-6.88c-16.7-35.08-36.36-62.83-56.9-84.74A242.64,242.64,0,0,0,21.08,171.35c50.79-11.25,97.26-12,128.21-10.53A51.34,51.34,0,0,1,164.33,139.15Z"/><path class="cls-3" d="M196.13,197.75c-14.39,6.87-30.08,6.14-39.94-2.58-61.8,69.08-77.88,153.49-76.24,227a242.09,242.09,0,0,0,285.63,40.5C257.34,372.15,212.43,254.37,196.13,197.75Z"/><path class="cls-4" d="M327.86,427.58a242.17,242.17,0,0,1-248-12.15q0,3.38.1,6.73a242.09,242.09,0,0,0,285.63,40.5A492.11,492.11,0,0,1,327.86,427.58Z"/><circle class="cls-5" cx="250" cy="250" r="242"/><ellipse class="cls-6" cx="186.26" cy="164.49" rx="43.06" ry="33.51" transform="translate(-62.22 162.01) rotate(-40.88)"/><ellipse class="cls-5" cx="186.26" cy="164.49" rx="43.06" ry="33.51" transform="translate(-62.22 162.01) rotate(-40.88)"/><path class="cls-5" d="M218.81,136.31c6.77,7.82,8.27,18.77,5.13,29.61,54.43,4.23,162.68,20.53,268,82.58C491.35,145,425.69,56.82,333.76,22.9,288.32,45.42,241,79,207.88,128.73A27.2,27.2,0,0,1,218.81,136.31Z"/><path class="cls-5" d="M164.33,139.15a54.59,54.59,0,0,1,10-6.88c-16.7-35.08-36.36-62.83-56.9-84.74A242.64,242.64,0,0,0,21.08,171.35c50.79-11.25,97.26-12,128.21-10.53A51.34,51.34,0,0,1,164.33,139.15Z"/><path class="cls-5" d="M196.13,197.75c-14.39,6.87-30.08,6.14-39.94-2.58-61.8,69.08-77.88,153.49-76.24,227a242.09,242.09,0,0,0,285.63,40.5C257.34,372.15,212.43,254.37,196.13,197.75Z"/></svg>