<svg id="icons" xmlns="http://www.w3.org/2000/svg" viewBox="0 0 64 64"><title>corded-gamepad-controller</title><g id="corded-gamepad-controller"><rect x="4" y="3.5" width="56" height="37" fill="#7ccacb"/><rect x="5" y="4.5" width="54" height="35" fill="#5ca1a1"/><path d="M50,37.5a12,12,0,1,1-8.94,20H23a12,12,0,1,1-9-20Z" fill="#f0ebe7"/><path d="M50,59.5a10,10,0,0,1-7.45-3.33L42,55.5H22.11l-.6.67A10,10,0,1,1,14,39.5H50a10,10,0,0,1,0,20Z" fill="#dbd0c8"/><path d="M50,37.5a12,12,0,1,1-8.94,20H23a12,12,0,1,1-9-20Z" fill="none" stroke="#544f4b" stroke-miterlimit="10" stroke-width="2"/><path d="M39,43.5a2,2,0,0,1-2,2H27a2,2,0,0,1-2-2h0" fill="#dd7a7a"/><path d="M25,43.5a2,2,0,0,1,2-2H37a2,2,0,0,1,2,2h0" fill="#f58787"/><rect x="25" y="41.5" width="14" height="4" rx="2" ry="2" fill="none" stroke="#544f4b" stroke-miterlimit="10" stroke-width="2"/><circle cx="14" cy="49.5" r="8" fill="#b59c90"/><circle cx="14" cy="49.5" r="6" fill="#8c7970"/><circle cx="14" cy="49.5" r="8" fill="none" stroke="#544f4b" stroke-miterlimit="10" stroke-width="2"/><polygon points="18 47.5 16 47.5 16 45.5 12 45.5 12 47.5 10 47.5 10 51.5 12 51.5 12 53.5 16 53.5 16 51.5 18 51.5 18 47.5" fill="#544f4b"/><line x1="13" y1="49.5" x2="15" y2="49.5" fill="none" stroke="#70bbbb" stroke-miterlimit="10" stroke-width="2"/><circle cx="50" cy="49.5" r="7.5" fill="#b59c90"/><circle cx="50" cy="49.5" r="6" fill="#8c7970"/><circle cx="50" cy="49.5" r="8" fill="none" stroke="#544f4b" stroke-miterlimit="10" stroke-width="2"/><polygon points="54 47.5 52 47.5 52 45.5 48 45.5 48 47.5 46 47.5 46 51.5 48 51.5 48 53.5 52 53.5 52 51.5 54 51.5 54 47.5" fill="#544f4b"/><line x1="49" y1="49.5" x2="51" y2="49.5" fill="none" stroke="#dbc07b" stroke-miterlimit="10" stroke-width="2"/><line x1="31" y1="49.5" x2="28" y2="53.5" fill="none" stroke="#544f4b" stroke-linecap="round" stroke-miterlimit="10" stroke-width="2"/><line x1="36" y1="49.5" x2="33" y2="53.5" fill="none" stroke="#544f4b" stroke-linecap="round" stroke-miterlimit="10" stroke-width="2"/><path d="M32,37.5V21a4.5,4.5,0,0,1,4.5-4.5h0A4.5,4.5,0,0,1,41,21v5a4.5,4.5,0,0,0,4.5,4.5h0A4.5,4.5,0,0,0,50,26V1.5" fill="none" stroke="#544f4b" stroke-miterlimit="10" stroke-width="2"/><polyline points="48 2.5 3 2.5 3 41.5 5 41.5" fill="none" stroke="#544f4b" stroke-miterlimit="10" stroke-width="2"/><polyline points="52 2.5 61 2.5 61 41.5 59 41.5" fill="none" stroke="#544f4b" stroke-miterlimit="10" stroke-width="2"/><line x1="8" y1="11.5" x2="12" y2="7.5" fill="none" stroke="#70bbbb" stroke-linecap="round" stroke-miterlimit="10" stroke-width="2"/><line x1="8" y1="16.5" x2="10" y2="14.5" fill="none" stroke="#70bbbb" stroke-linecap="round" stroke-miterlimit="10" stroke-width="2"/><line x1="12" y1="12.5" x2="12" y2="12.5" fill="none" stroke="#70bbbb" stroke-linecap="round" stroke-miterlimit="10" stroke-width="2"/><line x1="14" y1="10.5" x2="17" y2="7.5" fill="none" stroke="#70bbbb" stroke-linecap="round" stroke-miterlimit="10" stroke-width="2"/></g></svg>